<svg width="192" height="192" viewBox="0 0 192 192" fill="none" xmlns="http://www.w3.org/2000/svg">
<rect width="192" height="192" rx="6" fill="#0059B3"/>
<path d="M44.2569 126L42.0169 119.408H32.9929L30.7529 126H28.0329L35.8409 103.664H39.2649L47.0729 126H44.2569ZM37.5689 106.16H37.4089L33.6329 117.04H41.3449L37.5689 106.16ZM60.6929 123.312H60.5649C60.3942 123.696 60.1809 124.08 59.9249 124.464C59.6902 124.827 59.3915 125.157 59.0289 125.456C58.6662 125.733 58.2289 125.957 57.7169 126.128C57.2049 126.299 56.6075 126.384 55.9249 126.384C54.2182 126.384 52.8635 125.84 51.8609 124.752C50.8582 123.643 50.3569 122.085 50.3569 120.08V109.488H52.9169V119.632C52.9169 122.597 54.1755 124.08 56.6929 124.08C57.2049 124.08 57.6955 124.016 58.1649 123.888C58.6555 123.76 59.0822 123.568 59.4449 123.312C59.8289 123.056 60.1275 122.736 60.3409 122.352C60.5755 121.947 60.6929 121.467 60.6929 120.912V109.488H63.2529V126H60.6929V123.312ZM72.3524 126C71.4564 126 70.7737 125.755 70.3044 125.264C69.8564 124.752 69.6324 124.091 69.6324 123.28V111.728H66.9124V109.488H68.4484C69.003 109.488 69.3764 109.381 69.5684 109.168C69.7817 108.933 69.8884 108.539 69.8884 107.984V104.912H72.1924V109.488H75.8084V111.728H72.1924V123.76H75.5524V126H72.3524ZM86.0381 126.384C84.9288 126.384 83.9155 126.181 82.9981 125.776C82.0808 125.371 81.2915 124.795 80.6301 124.048C79.9901 123.28 79.4888 122.373 79.1261 121.328C78.7635 120.261 78.5821 119.067 78.5821 117.744C78.5821 116.443 78.7635 115.259 79.1261 114.192C79.4888 113.125 79.9901 112.219 80.6301 111.472C81.2915 110.704 82.0808 110.117 82.9981 109.712C83.9155 109.307 84.9288 109.104 86.0381 109.104C87.1475 109.104 88.1501 109.307 89.0461 109.712C89.9635 110.117 90.7528 110.704 91.4141 111.472C92.0755 112.219 92.5875 113.125 92.9501 114.192C93.3128 115.259 93.4941 116.443 93.4941 117.744C93.4941 119.067 93.3128 120.261 92.9501 121.328C92.5875 122.373 92.0755 123.28 91.4141 124.048C90.7528 124.795 89.9635 125.371 89.0461 125.776C88.1501 126.181 87.1475 126.384 86.0381 126.384ZM86.0381 124.112C87.4248 124.112 88.5555 123.685 89.4301 122.832C90.3048 121.979 90.7421 120.677 90.7421 118.928V116.56C90.7421 114.811 90.3048 113.509 89.4301 112.656C88.5555 111.803 87.4248 111.376 86.0381 111.376C84.6515 111.376 83.5208 111.803 82.6461 112.656C81.7715 113.509 81.3341 114.811 81.3341 116.56V118.928C81.3341 120.677 81.7715 121.979 82.6461 122.832C83.5208 123.685 84.6515 124.112 86.0381 124.112Z" fill="white"/>
<path d="M100.424 126C99.5284 126 98.8457 125.755 98.3764 125.264C97.9284 124.752 97.7044 124.112 97.7044 123.344V102.32H100.264V123.76H102.696V126H100.424ZM112.663 126.384C111.554 126.384 110.54 126.181 109.623 125.776C108.706 125.371 107.916 124.795 107.255 124.048C106.615 123.28 106.114 122.373 105.751 121.328C105.388 120.261 105.207 119.067 105.207 117.744C105.207 116.443 105.388 115.259 105.751 114.192C106.114 113.125 106.615 112.219 107.255 111.472C107.916 110.704 108.706 110.117 109.623 109.712C110.54 109.307 111.554 109.104 112.663 109.104C113.772 109.104 114.775 109.307 115.671 109.712C116.588 110.117 117.378 110.704 118.039 111.472C118.7 112.219 119.212 113.125 119.575 114.192C119.938 115.259 120.119 116.443 120.119 117.744C120.119 119.067 119.938 120.261 119.575 121.328C119.212 122.373 118.7 123.28 118.039 124.048C117.378 124.795 116.588 125.371 115.671 125.776C114.775 126.181 113.772 126.384 112.663 126.384ZM112.663 124.112C114.05 124.112 115.18 123.685 116.055 122.832C116.93 121.979 117.367 120.677 117.367 118.928V116.56C117.367 114.811 116.93 113.509 116.055 112.656C115.18 111.803 114.05 111.376 112.663 111.376C111.276 111.376 110.146 111.803 109.271 112.656C108.396 113.509 107.959 114.811 107.959 116.56V118.928C107.959 120.677 108.396 121.979 109.271 122.832C110.146 123.685 111.276 124.112 112.663 124.112ZM138.249 127.824C138.249 129.531 137.577 130.779 136.233 131.568C134.911 132.379 132.916 132.784 130.249 132.784C127.668 132.784 125.812 132.432 124.681 131.728C123.551 131.024 122.985 130.021 122.985 128.72C122.985 127.824 123.22 127.12 123.689 126.608C124.159 126.117 124.799 125.755 125.609 125.52V125.168C124.628 124.699 124.137 123.931 124.137 122.864C124.137 122.032 124.404 121.403 124.937 120.976C125.471 120.528 126.153 120.197 126.985 119.984V119.856C126.004 119.387 125.236 118.715 124.681 117.84C124.148 116.965 123.881 115.952 123.881 114.8C123.881 113.968 124.031 113.2 124.329 112.496C124.628 111.792 125.044 111.195 125.577 110.704C126.132 110.192 126.783 109.797 127.529 109.52C128.297 109.243 129.151 109.104 130.089 109.104C131.263 109.104 132.308 109.317 133.225 109.744V109.456C133.225 108.816 133.375 108.293 133.673 107.888C133.972 107.461 134.463 107.248 135.145 107.248H137.609V109.488H134.473V110.544C135.071 111.056 135.529 111.675 135.849 112.4C136.191 113.104 136.361 113.904 136.361 114.8C136.361 115.632 136.212 116.4 135.913 117.104C135.615 117.808 135.188 118.416 134.633 118.928C134.1 119.419 133.449 119.803 132.681 120.08C131.913 120.357 131.06 120.496 130.121 120.496C129.588 120.496 129.055 120.443 128.521 120.336C127.967 120.485 127.465 120.709 127.017 121.008C126.569 121.285 126.345 121.68 126.345 122.192C126.345 122.683 126.58 123.013 127.049 123.184C127.519 123.355 128.127 123.44 128.873 123.44H132.393C134.441 123.44 135.924 123.835 136.841 124.624C137.78 125.392 138.249 126.459 138.249 127.824ZM135.849 128.016C135.849 127.355 135.593 126.821 135.081 126.416C134.591 126.032 133.705 125.84 132.425 125.84H126.921C125.897 126.309 125.385 127.056 125.385 128.08C125.385 128.805 125.652 129.424 126.185 129.936C126.74 130.448 127.668 130.704 128.969 130.704H131.337C132.767 130.704 133.876 130.48 134.665 130.032C135.455 129.584 135.849 128.912 135.849 128.016ZM130.121 118.448C131.209 118.448 132.073 118.192 132.713 117.68C133.353 117.147 133.673 116.336 133.673 115.248V114.352C133.673 113.264 133.353 112.464 132.713 111.952C132.073 111.419 131.209 111.152 130.121 111.152C129.033 111.152 128.169 111.419 127.529 111.952C126.889 112.464 126.569 113.264 126.569 114.352V115.248C126.569 116.336 126.889 117.147 127.529 117.68C128.169 118.192 129.033 118.448 130.121 118.448ZM142.516 105.616C141.961 105.616 141.556 105.488 141.3 105.232C141.065 104.955 140.948 104.603 140.948 104.176V103.76C140.948 103.333 141.065 102.992 141.3 102.736C141.556 102.459 141.961 102.32 142.516 102.32C143.07 102.32 143.465 102.459 143.7 102.736C143.956 102.992 144.084 103.333 144.084 103.76V104.176C144.084 104.603 143.956 104.955 143.7 105.232C143.465 105.488 143.07 105.616 142.516 105.616ZM141.236 109.488H143.796V126H141.236V109.488ZM149.236 126V109.488H151.796V112.176H151.924C152.329 111.237 152.894 110.491 153.62 109.936C154.366 109.381 155.358 109.104 156.596 109.104C158.302 109.104 159.646 109.659 160.628 110.768C161.63 111.856 162.132 113.403 162.132 115.408V126H159.572V115.856C159.572 112.891 158.324 111.408 155.828 111.408C155.316 111.408 154.814 111.472 154.324 111.6C153.854 111.728 153.428 111.92 153.044 112.176C152.66 112.432 152.35 112.763 152.116 113.168C151.902 113.552 151.796 114.011 151.796 114.544V126H149.236Z" fill="white" fill-opacity="0.6"/>
<path d="M32.5665 67.664V81.488C32.5665 83.6213 32.9612 85.2427 33.7505 86.352C34.5398 87.44 35.9265 87.984 37.9105 87.984C39.8945 87.984 41.2812 87.44 42.0705 86.352C42.8598 85.2427 43.2545 83.6213 43.2545 81.488V67.664H45.9425V80.848C45.9425 82.4693 45.7932 83.8773 45.4945 85.072C45.2172 86.2667 44.7585 87.2587 44.1185 88.048C43.4785 88.8373 42.6358 89.424 41.5905 89.808C40.5665 90.192 39.3078 90.384 37.8145 90.384C36.3212 90.384 35.0625 90.192 34.0385 89.808C33.0358 89.424 32.2252 88.8373 31.6065 88.048C30.9878 87.2587 30.5398 86.2667 30.2625 85.072C30.0065 83.8773 29.8785 82.4693 29.8785 80.848V67.664H32.5665ZM51.47 90V73.488H54.03V76.176H54.158C54.5633 75.2373 55.1287 74.4907 55.854 73.936C56.6007 73.3813 57.5927 73.104 58.83 73.104C60.5367 73.104 61.8807 73.6587 62.862 74.768C63.8647 75.856 64.366 77.4027 64.366 79.408V90H61.806V79.856C61.806 76.8907 60.558 75.408 58.062 75.408C57.55 75.408 57.0487 75.472 56.558 75.6C56.0887 75.728 55.662 75.92 55.278 76.176C54.894 76.432 54.5847 76.7627 54.35 77.168C54.1367 77.552 54.03 78.0107 54.03 78.544V90H51.47ZM70.9375 69.616C70.3828 69.616 69.9775 69.488 69.7215 69.232C69.4868 68.9547 69.3695 68.6027 69.3695 68.176V67.76C69.3695 67.3333 69.4868 66.992 69.7215 66.736C69.9775 66.4587 70.3828 66.32 70.9375 66.32C71.4922 66.32 71.8868 66.4587 72.1215 66.736C72.3775 66.992 72.5055 67.3333 72.5055 67.76V68.176C72.5055 68.6027 72.3775 68.9547 72.1215 69.232C71.8868 69.488 71.4922 69.616 70.9375 69.616ZM69.6575 73.488H72.2175V90H69.6575V73.488Z" fill="white"/>
</svg>
