<svg id="And" xmlns="http://www.w3.org/2000/svg" viewBox="0 0 60 60"><defs><style>.cls-1{fill:none;}</style></defs><title>bird</title><path d="M41.41,13.4a1.27,1.27,0,1,0,1.27,1.27A1.27,1.27,0,0,0,41.41,13.4Z" transform="translate(0.07 0.01)"/><path d="M52.24,15.66H48.08V14.18a6.65,6.65,0,0,0-13.29,0V24.45H6a1,1,0,0,0-1,1,21.55,21.55,0,0,0,16.74,21v5a1,1,0,0,0,2,0V46.77a20,20,0,0,0,5.19.06v4.62a1,1,0,0,0,2,0V46.51A21.65,21.65,0,0,0,48.06,26a.78.78,0,0,0,0-.16v-5h4.16a2.59,2.59,0,0,0,0-5.17Zm0,3.17H47.08a1,1,0,0,0-1,1v5.85a.49.49,0,0,0,0,.12,19.52,19.52,0,0,1-39,.65h9.61a10.07,10.07,0,0,0,.89,4h8.1a1,1,0,1,1,0,1.91h-7a10.06,10.06,0,0,0,18.14-6V23.18h0v-9a4.65,4.65,0,0,1,9.29,0v2.48a1,1,0,0,0,1,1h5.16a.59.59,0,0,1,0,1.17Z" transform="translate(0.07 0.01)"/><rect class="cls-1" width="60" height="60"/></svg>