<svg id="båd" xmlns="http://www.w3.org/2000/svg" viewBox="0 0 60 60"><defs><style>.cls-1{fill:none;}</style></defs><title>boat</title><rect class="cls-1" width="60" height="60"/><path d="M55.89,39.36a1,1,0,0,0-.71-.29l-50,0a1,1,0,0,0-.92.62,1,1,0,0,0,.22,1.09L16.41,52.71a1.05,1.05,0,0,0,.71.29h0l27.17,0c6.83,0,11.83-5.42,11.89-12.9A1,1,0,0,0,55.89,39.36ZM44.29,51,17.53,51,7.6,41.09l46.54,0C53.68,46.86,49.67,51,44.29,51Z" transform="translate(-0.18 0)"/><path d="M26.1,36.93H48.42a.5.5,0,0,0,.5-.5V35.19c0-15.46-9.8-27.58-22.8-28.19a.5.5,0,0,0-.37.14.49.49,0,0,0-.15.36V36.43A.5.5,0,0,0,26.1,36.93Z" transform="translate(-0.18 0)"/><path d="M12,36.93H23.08a.5.5,0,0,0,.5-.5V25.64a.48.48,0,0,0-.15-.36.48.48,0,0,0-.37-.14c-5.47.25-10.13,4.75-11.6,11.18a.49.49,0,0,0,.09.42A.51.51,0,0,0,12,36.93Z" transform="translate(-0.18 0)"/></svg>