<svg id="Bil" xmlns="http://www.w3.org/2000/svg" viewBox="0 0 60 60"><defs><style>.cls-1{fill:none;}</style></defs><title>car</title><path class="cls-1" d="M30.7,26.3h0l0,0Z"/><path class="cls-1" d="M45.52,18.23a8.75,8.75,0,0,0-8.74-8.74H23.21a8.75,8.75,0,0,0-8.74,8.74v5.61H45.52Z"/><path d="M47.52,24.27v-6A10.75,10.75,0,0,0,36.78,7.49H23.21A10.75,10.75,0,0,0,12.47,18.23v6.05A10.86,10.86,0,0,0,5,34.59v7.89A3.48,3.48,0,0,0,8.51,46h1.62l-.06,3.78a2.76,2.76,0,1,0,5.52,0L15.64,46h29l0,3.78a2.76,2.76,0,0,0,5.52,0L50.17,46h1.36A3.48,3.48,0,0,0,55,42.48V34.59A10.85,10.85,0,0,0,47.52,24.27Zm-33.05-6a8.75,8.75,0,0,1,8.74-8.74H36.78a8.75,8.75,0,0,1,8.74,8.74v5.61H14.47ZM53,42.48A1.47,1.47,0,0,1,51.53,44h-43A1.47,1.47,0,0,1,7,42.48V34.59A8.87,8.87,0,0,1,13.72,26l.64-.16h.12A14.81,14.81,0,0,0,28.86,39.17V26.84a1,1,0,0,1,1-1,1,1,0,0,1,.82.46h0v0a1,1,0,0,1,.16.51V39.18A14.8,14.8,0,0,0,45.43,25.84h.24l.6.15A8.86,8.86,0,0,1,53,34.59Z"/><circle cx="47.18" cy="38.9" r="3"/><circle cx="13.07" cy="38.94" r="3"/><rect class="cls-1" width="60" height="60"/></svg>