<svg id="Kop" xmlns="http://www.w3.org/2000/svg" viewBox="0 0 60 60"><defs><style>.cls-1{fill:none;}</style></defs><title>cup</title><path d="M48,10h-36a2,2,0,0,0-2,2L10,29.94A16,16,0,0,0,18.28,44H11a1,1,0,0,0-1,1,5,5,0,0,0,4.94,5H37A5,5,0,0,0,42,45a1,1,0,0,0-1.05-1H33.79a16,16,0,0,0,8.3-14V28.61A9.92,9.92,0,0,0,50,19V12A2,2,0,0,0,48,10Zm-7.95,20A14.06,14.06,0,0,1,12,30L12.07,12h28V28.82h0ZM48,19a8,8,0,0,1-5.95,7.54V12H48Z" transform="translate(-0.01 0.01)"/><rect class="cls-1" width="60" height="60"/></svg>