<svg id="Hest" xmlns="http://www.w3.org/2000/svg" viewBox="0 0 60 60"><defs><style>.cls-1{fill:none;}</style></defs><title>horse</title><path d="M35,28.73a1.42,1.42,0,1,0-1.42-1.42A1.43,1.43,0,0,0,35,28.73Z" transform="translate(0.06 0.01)"/><path d="M52.91,33.11,39.56,19.65l-4.13-3.92a1,1,0,0,1-.31-.72V8.64a1,1,0,0,0-1-1h-1c-3.25,0-5.77,3.63-5.77,6.74v1.07a5.81,5.81,0,0,0-3.33-.1,11.18,11.18,0,0,0-5.18,3l-12,11.66a.43.43,0,0,1,0-.05l-1.9,1.84A22.58,22.58,0,0,0,6.07,37.1c.06.15.12.3.17.45s.16.44.25.66l0,0a22.92,22.92,0,0,0,38.34,6.42,7,7,0,0,0,3,.67,7.13,7.13,0,0,0,5-12.17ZM8.54,37.89,29.31,17.81V14.38c0-2.13,1.74-4.74,3.77-4.74l0,6.66,5.05,4.78,10.31,10.4h0a20.84,20.84,0,0,1-4,10.47l-.21-.17L41,38.51l-.62.26a8.79,8.79,0,0,1-7.14-.11,8.93,8.93,0,0,1-1.6-1l-.72-.55-11,11.72A20.81,20.81,0,0,1,8.54,37.89ZM27.67,50.34a21.09,21.09,0,0,1-5.7-.78l9.16-9.77a12.18,12.18,0,0,0,1.22.68,10.8,10.8,0,0,0,8.13.39l2.34,2.33c.11.12.23.22.34.32A20.84,20.84,0,0,1,27.67,50.34Zm23.82-8.56A5.09,5.09,0,0,1,46.16,43a22.77,22.77,0,0,0,4.07-9.73l1.26,1.27A5.12,5.12,0,0,1,51.49,41.78Z" transform="translate(0.06 0.01)"/><rect class="cls-1" width="60" height="60"/></svg>