<svg id="House" xmlns="http://www.w3.org/2000/svg" viewBox="0 0 60 60"><defs><style>.cls-1,.cls-2{fill:none;}.cls-1{stroke:#000;stroke-linecap:round;stroke-linejoin:round;stroke-width:2px;}</style></defs><title>house</title><path class="cls-1" d="M30.05,30" transform="translate(-0.05)"/><path class="cls-1" d="M30.05,30" transform="translate(-0.05)"/><path d="M52.3,28.83,31.46,8a2,2,0,0,0-2.83,0L7.79,28.83a1,1,0,0,0,.71,1.71h3.92v21a1,1,0,0,0,1,1h11.2a1,1,0,0,0,1-1V40.94a4.57,4.57,0,1,1,9.14,0V51.58a1,1,0,0,0,1,1H47a1,1,0,0,0,.71-.3,1,1,0,0,0,.29-.7l-.05-21H51.6a1,1,0,0,0,.7-1.71Zm-5.39-.29a1,1,0,0,0-1,1l.05,21h-9.2V40.94a6.57,6.57,0,1,0-13.14,0v9.64h-9.2v-21a1,1,0,0,0-1-1H10.91L30.05,9.4,49.18,28.54Z" transform="translate(-0.05)"/><path d="M25,24.58a5,5,0,1,0,5-5A5,5,0,0,0,25,24.58Z" transform="translate(-0.05)"/><rect class="cls-2" width="60" height="60"/></svg>