<svg id="Is" xmlns="http://www.w3.org/2000/svg" viewBox="0 0 60 60"><defs><style>.cls-1{fill:none;}</style></defs><title>icecream</title><path d="M30.13,29.92" transform="translate(-0.13 0.08)"/><path d="M44.17,23.11a14.86,14.86,0,0,0,.48-3.71,14.52,14.52,0,0,0-29,0A14.7,14.7,0,0,0,16,23.14a4.77,4.77,0,0,0-2.42,4.11,4.68,4.68,0,0,0,7.3,3.91l8.17,23.1a1,1,0,0,0,1,.69h0a1,1,0,0,0,1-.69l8.2-23.17a4.7,4.7,0,1,0,4.93-8ZM41.94,30a2.66,2.66,0,0,1-1.78-.67l-1.18-1-1.17,1a2.78,2.78,0,0,1-3.56,0l-1.17-1-1.17,1a2.79,2.79,0,0,1-3.57,0l-1.17-1-1.17,1a2.78,2.78,0,0,1-3.56,0l-1.17-1-1.18,1a2.66,2.66,0,0,1-1.78.67,2.71,2.71,0,0,1-2.7-2.71,2.75,2.75,0,0,1,1.49-2.41l1.29-.65L18,22.79a12.37,12.37,0,0,1-.4-3.39,12.52,12.52,0,1,1,24.58,3.36l-.39,1.42,1.32.64A2.71,2.71,0,0,1,41.94,30Z" transform="translate(-0.13 0.08)"/><rect class="cls-1" width="60" height="60"/></svg>