<svg id="Sko" xmlns="http://www.w3.org/2000/svg" viewBox="0 0 60 60"><defs><style>.cls-1{fill:none;}</style></defs><title>shoes</title><path d="M16,39.89a5,5,0,1,0-5-5A5,5,0,0,0,16,39.89Z" transform="translate(-0.01 0.06)"/><path d="M49.22,35.33C48,35,44.27,34.18,44.27,34.18a31.61,31.61,0,0,1-13.13-7.74h0a1,1,0,0,0,0-1.42A1,1,0,0,0,29.83,25a20.28,20.28,0,0,1-1.32-1.83l.17-.16a1,1,0,0,0,0-1.42,1,1,0,0,0-1.17-.18,17.83,17.83,0,0,1-.9-2.14l.35-.34a1,1,0,0,0-.93-1.68,19.69,19.69,0,0,1-.48-4.39v-.73A2.08,2.08,0,0,0,23.49,10H7.11A2.08,2.08,0,0,0,5,12.08V47.8a2.08,2.08,0,0,0,2.08,2.09h45.8A2.08,2.08,0,0,0,55,47.8V43.41A8.31,8.31,0,0,0,49.22,35.33Zm-.55,1.93A6.28,6.28,0,0,1,53,43.41v.48H40.31a12.61,12.61,0,0,1,3.4-7.79l0,0h.09C44.87,36.36,47.72,37,48.67,37.26ZM7.11,12H23.49a.09.09,0,0,1,.09.09v.73a21.73,21.73,0,0,0,.78,5.82L22.6,20.32a1,1,0,0,0,0,1.41,1,1,0,0,0,1.42,0l1.08-1a20.77,20.77,0,0,0,.94,2L24.66,24a1,1,0,0,0,0,1.42,1,1,0,0,0,.73.31,1,1,0,0,0,.69-.28l1-1a21.92,21.92,0,0,0,1.32,1.8L27,27.61a1,1,0,0,0,1.38,1.45l1.32-1.27A33.41,33.41,0,0,0,41.65,35.4a14.61,14.61,0,0,0-3.34,8.49H7V12.08A.08.08,0,0,1,7.11,12Z" transform="translate(-0.01 0.06)"/><rect class="cls-1" width="60" height="60"/></svg>